<svg width="20" height="20" viewBox="0 0 20 20" fill="none" xmlns="http://www.w3.org/2000/svg">
<path fill-rule="evenodd" clip-rule="evenodd" d="M3.74841 3.55919C4.36727 4.06199 4.59943 4.02363 5.76156 3.94609L16.7173 3.28824C16.9497 3.28824 16.7565 3.05643 16.679 3.01792L14.8595 1.70254C14.5108 1.43186 14.0463 1.12189 13.1561 1.19943L2.54761 1.97318C2.16071 2.01154 2.08344 2.20499 2.23751 2.36003L3.74841 3.55919ZM4.40618 6.11244V17.6398C4.40618 18.2594 4.71576 18.4911 5.41255 18.4528L17.453 17.7561C18.1501 17.7178 18.2278 17.2917 18.2278 16.7884V5.33834C18.2278 4.8359 18.0345 4.56495 17.6077 4.60362L5.02539 5.33834C4.56103 5.37737 4.40614 5.60964 4.40614 6.11244H4.40618ZM16.2924 6.73079C16.3696 7.07929 16.2924 7.42747 15.9433 7.46665L15.3632 7.58224V16.0925C14.8595 16.3632 14.395 16.518 14.0079 16.518C13.3883 16.518 13.2331 16.3244 12.7689 15.7445L8.97418 9.78727V15.5511L10.175 15.822C10.175 15.822 10.175 16.518 9.20618 16.518L6.53542 16.6729C6.45784 16.518 6.53542 16.1315 6.80634 16.0541L7.50328 15.8609V8.24005L6.53562 8.1625C6.458 7.81401 6.65129 7.31152 7.1937 7.27254L10.0588 7.0794L14.0079 13.1142V7.77565L13.0011 7.6601C12.9238 7.23406 13.2331 6.92471 13.6203 6.88635L16.2924 6.73079ZM1.6569 0.928792L12.6914 0.116174C14.0465 -4.32953e-05 14.3952 0.077813 15.2468 0.696475L18.7692 3.17218C19.3504 3.59791 19.5441 3.71381 19.5441 4.1779V17.7561C19.5441 18.6071 19.2341 19.1103 18.1503 19.1873L5.33587 19.9612C4.52228 20 4.13507 19.884 3.70899 19.3421L1.11507 15.9766C0.650322 15.3571 0.457031 14.8937 0.457031 14.3514V2.28222C0.457031 1.58632 0.767126 1.00583 1.6569 0.928792Z" fill="#1A1A1A" fill-opacity="0.5"/>
</svg>
