<svg width="24" height="24" viewBox="0 0 24 24" fill="none" xmlns="http://www.w3.org/2000/svg">
<path d="M20.5799 11.3441L4.74549 2.47535C4.61211 2.40167 4.45945 2.37036 4.30783 2.38559C4.15622 2.40083 4.01284 2.46188 3.89679 2.56063C3.78073 2.65938 3.69751 2.79113 3.6582 2.93835C3.61889 3.08557 3.62535 3.24127 3.67674 3.38473L6.65799 11.7472C6.72366 11.9096 6.72366 12.0911 6.65799 12.2535L3.67674 20.616C3.62535 20.7594 3.61889 20.9151 3.6582 21.0624C3.69751 21.2096 3.78073 21.3413 3.89679 21.4401C4.01284 21.5388 4.15622 21.5999 4.30783 21.6151C4.45945 21.6303 4.61211 21.599 4.74549 21.5254L20.5799 12.6566C20.6971 12.5917 20.7948 12.4967 20.8628 12.3813C20.9309 12.2659 20.9668 12.1343 20.9668 12.0004C20.9668 11.8664 20.9309 11.7349 20.8628 11.6194C20.7948 11.504 20.6971 11.409 20.5799 11.3441V11.3441Z" stroke="white" stroke-width="1.5" stroke-linecap="round" stroke-linejoin="round"/>
<path d="M6.75 12H12.75" stroke="white" stroke-width="1.5" stroke-linecap="round" stroke-linejoin="round"/>
</svg>
